<svg width="15" height="16" viewBox="0 0 15 16" fill="none" xmlns="http://www.w3.org/2000/svg">
<path d="M13.8049 6.77143C14.7626 7.31053 14.7626 8.68947 13.8049 9.22857L2.10143 15.8167C1.16161 16.3457 -4.7142e-08 15.6666 0 14.5881L5.7595e-07 1.4119C6.23092e-07 0.333414 1.16161 -0.345705 2.10143 0.183331L13.8049 6.77143Z" fill="#FF715B"/>
<path d="M13.8049 6.77143C14.7626 7.31053 14.7626 8.68947 13.8049 9.22857L2.10143 15.8167C1.16161 16.3457 -4.7142e-08 15.6666 0 14.5881L5.7595e-07 1.4119C6.23092e-07 0.333414 1.16161 -0.345705 2.10143 0.183331L13.8049 6.77143Z" fill="url(#paint0_linear_401_292)"/>
<defs>
<linearGradient id="paint0_linear_401_292" x1="7.2616" y1="0" x2="7.2616" y2="16" gradientUnits="userSpaceOnUse">
<stop stop-color="#D7412D"/>
<stop offset="1" stop-color="#FE6651"/>
</linearGradient>
</defs>
</svg>
